<svg xmlns="http://www.w3.org/2000/svg" viewBox="0 0 48 48" width="48" height="48">
  <path fill="#3371FF" d="M13 4h16l11 11v25a4 4 0 0 1-4 4H13a4 4 0 0 1-4-4V8a4 4 0 0 1 4-4z"/>
  <path fill="#A9C1FF" d="M29 4l11 11h-8a3 3 0 0 1-3-3z"/>
  <rect x="15" y="20" width="12" height="2.6" rx="1.3" fill="#fff" fill-opacity=".9"/>
  <rect x="15" y="26.5" width="11" height="2.6" rx="1.3" fill="#fff" fill-opacity=".9"/>
  <rect x="15" y="33" width="19" height="2.6" rx="1.3" fill="#fff" fill-opacity=".9"/>
  <rect x="28.4" y="24.6" width="2.2" height="6.6" rx="1.1" fill="#FFB547"/>
  <rect x="28.4" y="20" width="7.6" height="4.6" rx="1.4" fill="#FFB547"/>
</svg>
