<svg xmlns="http://www.w3.org/2000/svg" viewBox="0 0 32 32">
  <path d="M15.9.087l.854 1.604c.192.296.4.558.645.802a22.406 22.406 0 012.004 2.266c1.447 1.9 2.423 4.01 3.12 6.292.418 1.394.645 2.824.662 4.27.07 4.323-1.412 8.035-4.4 11.12a12.7 12.7 0 01-1.57 1.342c-.296 0-.436-.227-.558-.436a3.589 3.589 0 01-.436-1.255c-.105-.523-.174-1.046-.14-1.586v-.244C16.057 24.21 15.796.21 15.9.087z" fill="#599636"/>
  <path d="M15.9.034c-.035-.07-.07-.017-.105.017.017.35-.523 24.087-.523 24.087l-.035 1.056a3.7 3.7 0 00.437 1.767c.122.227.26.47.557.47h.035a12.7 12.7 0 001.57-1.342c2.987-3.085 4.47-6.797 4.4-11.12-.018-1.446-.244-2.876-.663-4.27-.696-2.283-1.672-4.393-3.12-6.292a22.432 22.432 0 00-2.004-2.267 7.798 7.798 0 00-.645-.802L15.9.034z" fill="#6cac48"/>
  <path d="M16.754 28.845c.035-.4.227-.732.436-1.063-.21-.087-.366-.26-.488-.453a3.7 3.7 0 01-.436-1.767l.035-1.056.523-24.087c-.052-.052-.87.07-.105.105l-.85 1.604a7.816 7.816 0 01-.645.802 22.406 22.406 0 00-2.004 2.267c-1.447 1.9-2.423 4.01-3.12 6.292-.418 1.394-.645 2.824-.662 4.27-.07 4.323 1.412 8.035 4.4 11.12.488.523.994 1.01 1.55 1.459.157 0 .174-.14.21-.244z" fill="#c2bfbf"/>
</svg>
